<mxfile host="app.diagrams.net" agent="Mozilla/5.0 (Windows NT 10.0; Win64; x64) AppleWebKit/537.36 (KHTML, like Gecko) Chrome/134.0.0.0 Safari/537.36" version="26.1.0">
  <diagram name="Pagina-1" id="ua4XcGBlDsil_uwZML-H">
    <mxGraphModel grid="1" page="1" gridSize="10" guides="1" tooltips="1" connect="1" arrows="1" fold="1" pageScale="1" pageWidth="827" pageHeight="1169" math="0" shadow="0">
      <root>
        <mxCell id="0" />
        <mxCell id="1" parent="0" />
        <mxCell id="FRKwMsUwU2U-9wxBTWLh-1" value="&lt;b&gt;&lt;font style=&quot;font-size: 14px;&quot;&gt;Movimento&lt;/font&gt;&lt;/b&gt;&lt;div&gt;Tridimensionale: WASD&lt;/div&gt;" style="rounded=1;whiteSpace=wrap;html=1;" vertex="1" parent="1">
          <mxGeometry x="50" y="90" width="140" height="60" as="geometry" />
        </mxCell>
        <mxCell id="kGdIeLsiQOQNqBdPUUTp-2" value="&lt;b&gt;&lt;font style=&quot;font-size: 14px;&quot;&gt;Preparazione Cibo&lt;/font&gt;&lt;/b&gt;&lt;div&gt;-Prendere un ingrediente: LMB&lt;/div&gt;&lt;div&gt;-Mettere un ingrediente: RMB&lt;/div&gt;&lt;div&gt;-Scartare ingredente/piatto: R&lt;/div&gt;&lt;div&gt;-Cuocere carne: Spazio&lt;/div&gt;&lt;div&gt;-Girare carne: R&lt;/div&gt;&lt;div&gt;-Togliere carne: E&lt;/div&gt;&lt;div&gt;-Prendere patatite: E&lt;/div&gt;&lt;div&gt;-Versare bibita: E&lt;/div&gt;" style="rounded=1;whiteSpace=wrap;html=1;" vertex="1" parent="1">
          <mxGeometry x="580" y="40" width="200" height="190" as="geometry" />
        </mxCell>
        <mxCell id="kGdIeLsiQOQNqBdPUUTp-3" value="&lt;div&gt;&lt;b&gt;&lt;font style=&quot;font-size: 14px;&quot;&gt;Pulizia e Manutenzione&lt;/font&gt;&lt;/b&gt;&lt;/div&gt;&lt;div&gt;-Pulire piastra/tavoli/strumenti: E (su selezione)&lt;/div&gt;&lt;div&gt;-Svuotare i cestini: E (su selezione)&lt;/div&gt;&lt;div&gt;&lt;span style=&quot;background-color: transparent; color: light-dark(rgb(0, 0, 0), rgb(255, 255, 255));&quot;&gt;-Ricaricare le dispense di bibite: Q&lt;/span&gt;&lt;/div&gt;&lt;div&gt;-Rifornire ingredienti: Q&lt;/div&gt;" style="rounded=1;whiteSpace=wrap;html=1;" vertex="1" parent="1">
          <mxGeometry x="260" y="200" width="270" height="120" as="geometry" />
        </mxCell>
        <mxCell id="kGdIeLsiQOQNqBdPUUTp-4" value="&lt;font style=&quot;font-size: 14px;&quot;&gt;&lt;b&gt;Controllo Sicurezza Alimentare&lt;/b&gt;&lt;/font&gt;&lt;div&gt;-Controllare temp. Tab&lt;/div&gt;&lt;div&gt;-Cambiare Olio: E (su olio)&lt;/div&gt;&lt;div&gt;-Verificare Scadenza Ingredienti: Tab&lt;/div&gt;&lt;div&gt;-Scartare ingrediente scaduto: R&lt;/div&gt;" style="rounded=1;whiteSpace=wrap;html=1;" vertex="1" parent="1">
          <mxGeometry x="260" y="40" width="250" height="110" as="geometry" />
        </mxCell>
        <mxCell id="kGdIeLsiQOQNqBdPUUTp-5" value="&lt;font style=&quot;font-size: 14px;&quot;&gt;&lt;b&gt;Gestione Priorità Ordini&lt;/b&gt;&lt;/font&gt;&lt;div&gt;-Vedere lista ordini: M&lt;/div&gt;&lt;div&gt;-Evidenziare ordini urgenti: U&lt;/div&gt;" style="rounded=1;whiteSpace=wrap;html=1;" vertex="1" parent="1">
          <mxGeometry x="585" y="240" width="190" height="80" as="geometry" />
        </mxCell>
        <mxCell id="kGdIeLsiQOQNqBdPUUTp-7" value="&lt;font style=&quot;font-size: 14px;&quot;&gt;&lt;b&gt;Comandi generali&lt;/b&gt;&lt;/font&gt;&lt;div&gt;-Menù opzioni: Esc&lt;/div&gt;&lt;div&gt;-Pausa gioco: P&lt;/div&gt;&lt;div&gt;-Rivedere comandi: F1&lt;/div&gt;" style="rounded=1;whiteSpace=wrap;html=1;" vertex="1" parent="1">
          <mxGeometry x="50" y="220" width="150" height="100" as="geometry" />
        </mxCell>
      </root>
    </mxGraphModel>
  </diagram>
</mxfile>
